<svg xmlns="http://www.w3.org/2000/svg" width="96" height="96" viewBox="0 0 96 96">
    <g fill="none" fill-rule="evenodd">
        <path d="M0 96L96 96 96 0 0 0z"/>
        <g fill="#C8C8C8">
            <path d="M16 46c0-1.104-.896-2-2-2H6c-1.1 0-2-.896-2-2V6c0-1.104.9-2 2-2h48c1.1 0 2 .896 2 2v36c0 1.104-.9 2-2 2H26c-.26 0-.52.052-.764.156-.244.1-.468.248-.652.432L16 53.172V46zm38 2c3.308 0 6-2.692 6-6V6c0-3.308-2.692-6-6-6H6C2.692 0 0 2.692 0 6v36c0 3.308 2.692 6 6 6h6v10c0 .808.488 1.54 1.236 1.848.244.104.508.152.764.152.52 0 1.032-.204 1.416-.584L26.828 48H54z" transform="translate(12 12)"/>
            <path d="M70 24c-1.104 0-2 .896-2 2v28c0 1.104-.9 2-2 2h-8c-1.104 0-2 .896-2 2v7.172l-8.584-8.584c-.184-.184-.408-.332-.652-.432C46.52 56.052 46.26 56 46 56H34c-1.104 0-2 .896-2 2s.896 2 2 2h11.172l11.412 11.412c.184.184.408.332.652.432.244.104.504.156.764.156s.52-.052.764-.156c.488-.2.88-.592 1.084-1.08.096-.244.152-.504.152-.764V60h6c3.308 0 6-2.692 6-6V26c0-1.104-.896-2-2-2" transform="translate(12 12)"/>
        </g>
    </g>
</svg>
