<svg xmlns="http://www.w3.org/2000/svg" width="96" height="96" viewBox="0 0 96 96">
    <g fill="none" fill-rule="evenodd">
        <path d="M0 96L96 96 96 0 0 0z"/>
        <path fill="#C8C8C8" d="M41.668 15.696c3.904-2.252 8.756-2.256 12.664 0 1.316.76 2.812 1.16 4.336 1.16 4.512 0 8.716 2.428 10.968 6.336.76 1.316 1.856 2.412 3.172 3.172 3.908 2.256 6.332 6.46 6.332 10.968 0 1.52.404 3.02 1.16 4.332 2.26 3.908 2.26 8.764 0 12.668-.756 1.316-1.16 2.816-1.16 4.332 0 4.512-2.424 8.716-6.332 10.972-1.316.76-2.412 1.856-3.176 3.176-2.248 3.904-6.452 6.332-10.964 6.332-1.524 0-3.02.4-4.336 1.16-1.952 1.124-4.14 1.692-6.332 1.692s-4.38-.568-6.332-1.692c-1.316-.76-2.812-1.16-4.336-1.16-4.512 0-8.716-2.428-10.968-6.336-.76-1.316-1.856-2.412-3.172-3.172-3.908-2.256-6.332-6.46-6.332-10.972 0-1.516-.404-3.016-1.16-4.328-2.26-3.908-2.26-8.764 0-12.672.756-1.312 1.16-2.812 1.16-4.332 0-4.508 2.424-8.712 6.332-10.968 1.316-.76 2.412-1.856 3.176-3.176 2.248-3.904 6.452-6.332 10.964-6.332 1.524 0 3.02-.4 4.336-1.16zM48 18.004c-1.496 0-2.996.388-4.332 1.16-1.92 1.108-4.112 1.692-6.336 1.692-3.084 0-5.96 1.66-7.5 4.332-1.116 1.928-2.72 3.532-4.64 4.64-2.672 1.544-4.332 4.42-4.332 7.504 0 2.224-.588 4.416-1.7 6.336-1.544 2.672-1.544 5.992 0 8.664 1.112 1.92 1.7 4.112 1.7 6.332 0 3.088 1.66 5.964 4.332 7.508 1.92 1.108 3.524 2.712 4.636 4.636 1.544 2.676 4.42 4.336 7.504 4.336 2.224 0 4.416.584 6.336 1.692 2.676 1.548 5.996 1.544 8.664 0 1.924-1.108 4.112-1.692 6.336-1.692 3.088 0 5.96-1.66 7.5-4.332 1.116-1.928 2.72-3.532 4.64-4.64 2.672-1.544 4.332-4.42 4.332-7.508 0-2.22.588-4.412 1.7-6.332 1.544-2.672 1.544-5.992 0-8.668-1.112-1.916-1.7-4.108-1.7-6.332 0-3.084-1.66-5.96-4.332-7.504-1.92-1.108-3.524-2.712-4.636-4.636-1.544-2.676-4.416-4.336-7.504-4.336-2.224 0-4.412-.584-6.336-1.692-1.336-.772-2.836-1.16-4.332-1.16zM40 60c1.104 0 2 .896 2 2s-.896 2-2 2-2-.896-2-2 .896-2 2-2zm16 0c1.104 0 2 .896 2 2s-.896 2-2 2-2-.896-2-2 .896-2 2-2zM34 46c1.104 0 2 .896 2 2s-.896 2-2 2-2-.896-2-2 .896-2 2-2zm14 0c1.104 0 2 .896 2 2s-.896 2-2 2-2-.896-2-2 .896-2 2-2zm14 0c1.104 0 2 .896 2 2s-.896 2-2 2-2-.896-2-2 .896-2 2-2zM40 32c1.104 0 2 .896 2 2s-.896 2-2 2-2-.896-2-2 .896-2 2-2zm16 0c1.104 0 2 .896 2 2s-.896 2-2 2-2-.896-2-2 .896-2 2-2z"/>
    </g>
</svg>
