<svg xmlns="http://www.w3.org/2000/svg" width="96" height="96" viewBox="0 0 96 96">
    <g fill="none" fill-rule="evenodd">
        <path d="M0 96L96 96 96 0 0 0z"/>
        <g fill="#C8C8C8">
            <path d="M44 38H34V28c0-1.104-.896-2-2-2s-2 .896-2 2v12c0 1.104.896 2 2 2h12c1.104 0 2-.896 2-2s-.896-2-2-2" transform="translate(16 12)"/>
            <path d="M61.723 35.918c-1.428-10.368-8.288-19.372-17.904-23.492-3.168-1.356-6.48-2.116-9.82-2.34V6.002h6c1.108 0 2-.896 2-2 0-1.108-.892-2-2-2h-16c-1.104 0-2 .892-2 2 0 1.104.896 2 2 2h6v4.072c-3.092.208-6.176.884-9.14 2.072-7.44 2.976-13.276 8.672-16.432 16.036-3.156 7.364-3.26 15.52-.284 22.96 2.98 7.44 8.672 13.276 16.036 16.432 3.792 1.624 7.792 2.436 11.796 2.436 3.872 0 7.756-.76 11.46-2.288 1.024-.42 1.508-1.588 1.084-2.612-.416-1.02-1.584-1.5-2.608-1.088-6.532 2.696-13.684 2.644-20.152-.124-6.384-2.736-11.32-7.796-13.9-14.24-2.576-6.452-2.492-13.516.248-19.9 2.732-6.384 7.788-11.32 14.236-13.9 3.124-1.248 6.388-1.856 9.648-1.86.004 0 .008.004.008.004.004 0 .004-.004.008-.004 3.476 0 6.948.692 10.236 2.104 8.46 3.624 14.26 11.236 15.52 20.364.644 4.664 0 9.428-1.868 13.78-.92 2.148-2.16 4.156-3.644 6.004l-1.404-1.404c-.18-.18-.348-.264-.488-.264-.216 0-.36.216-.36.616v5.604c0 .66.54 1.2 1.2 1.2h5.604c.66 0 .816-.384.348-.848l-2.044-2.048c1.844-2.224 3.348-4.672 4.468-7.288 2.152-5.02 2.896-10.516 2.148-15.9" transform="translate(16 12)"/>
        </g>
    </g>
</svg>
