<svg xmlns="http://www.w3.org/2000/svg" width="96" height="96" viewBox="0 0 96 96">
    <g fill="none" fill-rule="evenodd">
        <path d="M0 96L96 96 96 0 0 0z"/>
        <path fill="#C8C8C8" d="M84 54c0 1.104-.9 2-2 2H70c-1.1 0-2-.896-2-2v-4c0-1.104.9-2 2-2h12c1.1 0 2 .896 2 2v4zM55.488 19.268c.596-.16 1.232-.036 1.732.348.496.38.78.96.78 1.584V26H29.984l25.504-6.732zM82 44V32c0-3.308-2.692-6-6-6H62v-4.8c0-1.876-.856-3.612-2.344-4.756-1.492-1.144-3.38-1.528-5.196-1.04L14.52 26.012c-2.108.156-3.744 1.96-4.276 4.392C10.1 30.916 10 31.444 10 32v40c0 3.308 2.692 6 6 6h44c1.104 0 2-.896 2-2s-.896-2-2-2H16c-1.1 0-2-.896-2-2V32c0-1.104.9-2 2-2h60c1.1 0 2 .896 2 2v12h-8c-3.308 0-6 2.692-6 6v4c0 3.308 2.692 6 6 6h8v12c0 1.104-.9 2-2 2h-4c-1.104 0-2 .896-2 2s.896 2 2 2h4c3.308 0 6-2.692 6-6V60c3.308 0 6-2.692 6-6v-4c0-3.308-2.692-6-6-6z"/>
    </g>
</svg>
